<svg viewBox="0 0 224 222" fill="none" xmlns="http://www.w3.org/2000/svg">
    <rect x="38.4536" y="36" width="185.093" height="185.093" rx="12.989" fill="#DADAFF" fill-opacity="0.8"/>
    <rect x="59.02" y="79.7422" width="74.2205" height="90.3407" rx="8.06014" transform="rotate(-14.7117 59.02 79.7422)" fill="white"/>
    <rect x="76.5942" y="91.5391" width="7.09438" height="7.01543" rx="3.50771" transform="rotate(-14.7117 76.5942 91.5391)" fill="#7857FF"/>
    <path fill-rule="evenodd" clip-rule="evenodd" d="M82.5413 92.9153C82.6511 92.7274 82.5877 92.486 82.3997 92.3762C82.2118 92.2665 81.9704 92.3298 81.8606 92.5178L80.7128 94.483L79.5075 93.779C79.3196 93.6692 79.0782 93.7326 78.9684 93.9206C78.8587 94.1085 78.922 94.3499 79.11 94.4597L80.5994 95.3296C80.6159 95.3433 80.6338 95.3559 80.6529 95.367C80.8409 95.4768 81.0822 95.4134 81.192 95.2255L82.5413 92.9153Z" fill="#F9FAFB"/>
    <rect x="85.7134" y="89.457" width="38.0008" height="6.33347" rx="3.16674" transform="rotate(-14.7117 85.7134 89.457)" fill="#D9D9D9"/>
    <rect x="79.9966" y="104.498" width="7.09438" height="7.01543" rx="3.50771" transform="rotate(-14.7117 79.9966 104.498)" fill="#7857FF"/>
    <path fill-rule="evenodd" clip-rule="evenodd" d="M85.9435 105.874C86.0532 105.686 85.9899 105.445 85.8019 105.335C85.6139 105.225 85.3726 105.289 85.2628 105.477L84.115 107.442L82.91 106.738C82.722 106.629 82.4806 106.692 82.3709 106.88C82.2611 107.068 82.3244 107.309 82.5124 107.419L84.002 108.289C84.0184 108.303 84.0361 108.315 84.0551 108.326C84.2431 108.436 84.4844 108.372 84.5942 108.185L85.9435 105.874Z" fill="#F9FAFB"/>
    <rect x="89.1597" y="102.582" width="27.7466" height="6.33347" rx="3.16674" transform="rotate(-14.7117 89.1597 102.582)" fill="#D9D9D9"/>
    <rect x="83.4019" y="117.459" width="7.09438" height="7.01543" rx="3.50771" transform="rotate(-14.7117 83.4019 117.459)" fill="#7857FF"/>
    <path fill-rule="evenodd" clip-rule="evenodd" d="M89.3483 118.834C89.4581 118.646 89.3947 118.404 89.2068 118.294C89.0188 118.185 88.7775 118.248 88.6677 118.436L87.5201 120.401L86.3158 119.697C86.1278 119.588 85.8864 119.651 85.7767 119.839C85.6669 120.027 85.7303 120.268 85.9182 120.378L87.4045 121.246C87.4215 121.261 87.4401 121.274 87.46 121.285C87.6439 121.393 87.8791 121.334 87.9919 121.156C87.9955 121.15 87.9989 121.145 88.0022 121.139C88.0045 121.135 88.0068 121.131 88.009 121.127L89.3483 118.834Z" fill="#F9FAFB"/>
    <rect x="92.5337" y="115.416" width="34.6833" height="6.33347" rx="3.16674" transform="rotate(-14.7117 92.5337 115.416)" fill="#D9D9D9"/>
    <rect x="86.8032" y="130.42" width="7.09438" height="7.01543" rx="3.50771" transform="rotate(-14.7117 86.8032 130.42)" fill="#7857FF"/>
    <path fill-rule="evenodd" clip-rule="evenodd" d="M92.7503 131.796C92.8601 131.608 92.7967 131.367 92.6088 131.257C92.4208 131.147 92.1795 131.211 92.0697 131.399L90.9218 133.364L89.7166 132.66C89.5286 132.55 89.2873 132.614 89.1775 132.802C89.0677 132.99 89.1311 133.231 89.319 133.341L90.8095 134.211C90.8257 134.225 90.8432 134.237 90.862 134.248C91.0499 134.358 91.2913 134.294 91.4011 134.106L92.7503 131.796Z" fill="#F9FAFB"/>
    <rect x="95.9771" y="128.543" width="34.6833" height="6.33347" rx="3.16674" transform="rotate(-14.7117 95.9771 128.543)" fill="#D9D9D9"/>
    <rect x="88.4771" y="143.922" width="7.09438" height="7.01543" rx="3.50771" transform="rotate(-14.7117 88.4771 143.922)" fill="#7857FF"/>
    <path fill-rule="evenodd" clip-rule="evenodd" d="M94.4237 145.296C94.5335 145.108 94.4701 144.867 94.2822 144.757C94.0942 144.648 93.8529 144.711 93.7431 144.899L92.5954 146.864L91.391 146.16C91.203 146.051 90.9616 146.114 90.8519 146.302C90.7421 146.49 90.8055 146.731 90.9934 146.841L92.4806 147.71C92.4974 147.724 92.5157 147.737 92.5354 147.748C92.7223 147.857 92.9621 147.795 93.0727 147.61C93.0743 147.607 93.0758 147.604 93.0774 147.602C93.0788 147.599 93.0802 147.597 93.0816 147.594L94.4237 145.296Z" fill="#F9FAFB"/>
    <rect x="97.5962" y="141.84" width="36.4929" height="6.33347" rx="3.16674" transform="rotate(-14.7117 97.5962 141.84)" fill="#D9D9D9"/>
    <g filter="url(#filter0_d_3112_884)">
        <rect x="118.551" y="92.2852" width="81.3339" height="98.9991" rx="8.83264" fill="white"/>
        <rect x="131.54" y="105.055" width="38.0008" height="6.33347" rx="3.16674" fill="#FFB444"/>
        <rect x="131.54" y="149.982" width="38.0008" height="6.33347" rx="3.16674" fill="#FFB444"/>
        <rect x="131.54" y="138.707" width="38.0008" height="6.33347" rx="3.16674" fill="#5F64EF"/>
        <rect x="188.907" y="133.928" width="57.3679" height="6.49448" rx="3.24724" transform="rotate(180 188.907 133.928)" fill="#FFB444"/>
        <rect x="173.754" y="105.055" width="15.1538" height="6.49448" rx="3.24724" fill="#FFB444"/>
        <rect x="173.754" y="138.707" width="15.1538" height="6.49448" rx="3.24724" fill="#5F64EF"/>
        <rect x="151.023" y="116.098" width="38.0008" height="6.33347" rx="3.16674" fill="#5F64EF"/>
    </g>
    <path d="M38 70.6542C57.0868 70.6542 72.6537 55.4829 72.6537 36.6536C72.6537 17.8243 57.0868 2.65298 38 2.65298C18.9132 2.65298 3.34634 17.8243 3.34634 36.6536C3.34634 55.4829 18.9132 70.6542 38 70.6542Z" fill="#7857FF" stroke="#F6F9FC" stroke-width="5.30732"/>
    <path d="M27.2932 47V42.9743L35.7404 35.5787C36.3737 35.0058 36.9127 34.4818 37.3575 34.0069C37.8023 33.5244 38.1415 33.0419 38.3752 32.5594C38.6089 32.0694 38.7258 31.5379 38.7258 30.965C38.7258 30.3242 38.5863 29.7776 38.3074 29.3253C38.0284 28.8654 37.644 28.5111 37.1539 28.2623C36.6639 28.0135 36.1023 27.8891 35.469 27.8891C34.8282 27.8891 34.2666 28.0211 33.7841 28.2849C33.3016 28.5412 32.9247 28.9144 32.6533 29.4044C32.3894 29.8945 32.2575 30.49 32.2575 31.1911H26.9539C26.9539 29.6155 27.3083 28.2548 28.0169 27.1089C28.7256 25.963 29.7207 25.0809 31.0023 24.4628C32.2914 23.837 33.7879 23.5242 35.4916 23.5242C37.2482 23.5242 38.7748 23.8182 40.0715 24.4062C41.3681 24.9942 42.3708 25.816 43.0794 26.8714C43.7956 27.9193 44.1537 29.1368 44.1537 30.5239C44.1537 31.406 43.9766 32.2805 43.6222 33.1475C43.2679 34.0144 42.6309 34.9718 41.7111 36.0197C40.7989 37.0676 39.5023 38.3228 37.8211 39.7854L35.0506 42.341V42.488H44.4364V47H27.2932ZM51.7924 47.3279C50.9782 47.3279 50.2809 47.0415 49.7004 46.4685C49.1274 45.8956 48.8447 45.202 48.8523 44.3878C48.8447 43.5887 49.1274 42.9064 49.7004 42.341C50.2809 41.7681 50.9782 41.4816 51.7924 41.4816C52.5614 41.4816 53.2399 41.7681 53.8279 42.341C54.4234 42.9064 54.725 43.5887 54.7325 44.3878C54.725 44.9306 54.5818 45.4244 54.3028 45.8692C54.0314 46.314 53.6733 46.6683 53.2285 46.9322C52.7913 47.196 52.3126 47.3279 51.7924 47.3279Z" fill="white"/>
    <defs>
        <filter id="filter0_d_3112_884" x="97.9849" y="76.049" width="122.466" height="140.132" filterUnits="userSpaceOnUse" color-interpolation-filters="sRGB">
            <feFlood flood-opacity="0" result="BackgroundImageFix"/>
            <feColorMatrix in="SourceAlpha" type="matrix" values="0 0 0 0 0 0 0 0 0 0 0 0 0 0 0 0 0 0 127 0" result="hardAlpha"/>
            <feOffset dy="4.32965"/>
            <feGaussianBlur stdDeviation="10.2829"/>
            <feComposite in2="hardAlpha" operator="out"/>
            <feColorMatrix type="matrix" values="0 0 0 0 0 0 0 0 0 0 0 0 0 0 0 0 0 0 0.25 0"/>
            <feBlend mode="normal" in2="BackgroundImageFix" result="effect1_dropShadow_3112_884"/>
            <feBlend mode="normal" in="SourceGraphic" in2="effect1_dropShadow_3112_884" result="shape"/>
        </filter>
    </defs>
</svg>