<svg viewBox="0 0 224 223" fill="none" xmlns="http://www.w3.org/2000/svg">
    <rect x="36.0791" y="35" width="187.842" height="187.842" rx="13.1819" fill="#DADAFF" fill-opacity="0.8"/>
    <rect x="56.9512" y="78.3945" width="75.3228" height="91.6825" rx="8.17985" transform="rotate(-14.7117 56.9512 78.3945)" fill="white"/>
    <rect x="74.7871" y="90.3633" width="7.19974" height="7.11962" rx="3.55981" transform="rotate(-14.7117 74.7871 90.3633)" fill="#7857FF"/>
    <path fill-rule="evenodd" clip-rule="evenodd" d="M80.8226 91.7582C80.934 91.5674 80.8697 91.3225 80.679 91.2111C80.4882 91.0997 80.2433 91.164 80.1319 91.3547L78.9668 93.3495L77.7437 92.6351C77.553 92.5237 77.308 92.588 77.1966 92.7788C77.0852 92.9695 77.1495 93.2145 77.3403 93.3259L78.8541 94.2101C78.8702 94.2233 78.8876 94.2354 78.9062 94.2463C79.097 94.3577 79.3419 94.2934 79.4533 94.1026L80.8226 91.7582Z" fill="#F9FAFB"/>
    <rect x="84.042" y="88.25" width="38.5652" height="6.42754" rx="3.21377" transform="rotate(-14.7117 84.042 88.25)" fill="#D9D9D9"/>
    <rect x="78.2402" y="103.518" width="7.19974" height="7.11962" rx="3.55981" transform="rotate(-14.7117 78.2402 103.518)" fill="#7857FF"/>
    <path fill-rule="evenodd" clip-rule="evenodd" d="M84.2755 104.913C84.3869 104.722 84.3226 104.477 84.1318 104.365C83.9411 104.254 83.6961 104.318 83.5847 104.509L82.4198 106.504L81.1968 105.789C81.0061 105.678 80.7611 105.742 80.6497 105.933C80.5383 106.124 80.6026 106.369 80.7934 106.48L82.3053 107.363C82.3219 107.377 82.3398 107.389 82.359 107.401C82.5498 107.512 82.7947 107.448 82.9062 107.257L84.2755 104.913Z" fill="#F9FAFB"/>
    <rect x="87.5391" y="101.572" width="28.1587" height="6.42754" rx="3.21377" transform="rotate(-14.7117 87.5391 101.572)" fill="#D9D9D9"/>
    <rect x="81.6924" y="116.672" width="7.19974" height="7.11962" rx="3.55981" transform="rotate(-14.7117 81.6924 116.672)" fill="#7857FF"/>
    <path fill-rule="evenodd" clip-rule="evenodd" d="M87.7279 118.067C87.8393 117.876 87.775 117.631 87.5842 117.52C87.3935 117.408 87.1485 117.473 87.0371 117.663L85.8721 119.658L84.649 118.944C84.4583 118.832 84.2133 118.897 84.1019 119.087C83.9905 119.278 84.0548 119.523 84.2455 119.634L85.7593 120.519C85.7755 120.532 85.7929 120.544 85.8115 120.555C86.0022 120.666 86.2472 120.602 86.3586 120.411L87.7279 118.067Z" fill="#F9FAFB"/>
    <rect x="90.959" y="114.6" width="35.1984" height="6.42754" rx="3.21377" transform="rotate(-14.7117 90.959 114.6)" fill="#D9D9D9"/>
    <rect x="85.1465" y="129.824" width="7.19974" height="7.11962" rx="3.55981" transform="rotate(-14.7117 85.1465 129.824)" fill="#7857FF"/>
    <path fill-rule="evenodd" clip-rule="evenodd" d="M91.182 131.219C91.2934 131.028 91.2291 130.783 91.0383 130.672C90.8476 130.561 90.6026 130.625 90.4912 130.816L89.3262 132.81L88.1031 132.096C87.9123 131.985 87.6674 132.049 87.556 132.24C87.4446 132.43 87.5089 132.675 87.6996 132.787L89.2132 133.671C89.2294 133.684 89.2469 133.696 89.2656 133.707C89.4563 133.819 89.7013 133.754 89.8127 133.564L91.182 131.219Z" fill="#F9FAFB"/>
    <rect x="94.4561" y="127.92" width="35.1984" height="6.42754" rx="3.21377" transform="rotate(-14.7117 94.4561 127.92)" fill="#D9D9D9"/>
    <rect x="86.8467" y="143.525" width="7.19974" height="7.11962" rx="3.55981" transform="rotate(-14.7117 86.8467 143.525)" fill="#7857FF"/>
    <path fill-rule="evenodd" clip-rule="evenodd" d="M92.8815 144.921C92.9929 144.73 92.9286 144.485 92.7378 144.373C92.5471 144.262 92.3021 144.326 92.1907 144.517L91.0259 146.511L89.8039 145.798C89.6132 145.686 89.3682 145.751 89.2568 145.941C89.1454 146.132 89.2097 146.377 89.4004 146.488L90.9102 147.37C90.9271 147.384 90.9454 147.397 90.9651 147.409C91.1471 147.515 91.3786 147.461 91.4961 147.29C91.5029 147.281 91.5093 147.271 91.5154 147.26C91.5186 147.255 91.5217 147.249 91.5246 147.244L92.8815 144.921Z" fill="#F9FAFB"/>
    <rect x="96.1016" y="141.412" width="37.0349" height="6.42754" rx="3.21377" transform="rotate(-14.7117 96.1016 141.412)" fill="#D9D9D9"/>
    <g filter="url(#filter0_d_3307_1173)">
        <rect x="117.367" y="91.123" width="82.5418" height="100.469" rx="8.96382" fill="white"/>
        <path d="M158.117 169V159.625C158.117 155.721 154.952 152.556 151.048 152.556H137.069C133.165 152.556 130 149.353 130 145.449V145.449C130 141.544 133.165 138.342 137.069 138.342H178.829C182.513 138.342 185.5 135.355 185.5 131.671V131.671C185.5 127.986 182.513 124.999 178.829 124.999L160.895 125C156.991 125 153.826 121.835 153.826 117.93V109" stroke="#6A6A6A" stroke-width="2" stroke-dasharray="2 4"/>
        <path d="M150.345 105.408C152.618 101.8 157.877 101.8 160.149 105.408C162.579 109.266 159.806 114.288 155.247 114.288C150.688 114.288 147.916 109.266 150.345 105.408Z" fill="#5F64EF"/>
        <ellipse cx="159" cy="174" rx="11" ry="5" fill="#D9D9D9"/>
        <path d="M171.646 155.57C172.489 155.903 172.489 157.097 171.646 157.43L161.117 161.589C160.461 161.848 159.75 161.365 159.75 160.659L159.75 152.341C159.75 151.635 160.461 151.152 161.117 151.411L171.646 155.57Z" fill="url(#paint0_linear_3307_1173)"/>
        <rect x="157" y="150" width="3" height="24" rx="1" fill="#1F2937"/>
    </g>
    <path d="M38 70.7854C57.1078 70.7854 72.6931 55.5972 72.6931 36.7454C72.6931 17.8935 57.1078 2.70537 38 2.70537C18.8922 2.70537 3.30693 17.8935 3.30693 36.7454C3.30693 55.5972 18.8922 70.7854 38 70.7854Z" fill="#7857FF" stroke="#F6F9FC" stroke-width="5.38614"/>
    <path d="M40.8729 24.5906V48.0938H35.2037V29.8926H35.066L29.8099 33.1059V28.1941L35.6054 24.5906H40.8729ZM52.2745 48.4266C51.4482 48.4266 50.7405 48.1358 50.1514 47.5544C49.5699 46.9729 49.283 46.269 49.2907 45.4428C49.283 44.6318 49.5699 43.9394 50.1514 43.3656C50.7405 42.7841 51.4482 42.4934 52.2745 42.4934C53.0549 42.4934 53.7434 42.7841 54.3402 43.3656C54.9446 43.9394 55.2506 44.6318 55.2583 45.4428C55.2506 45.9936 55.1053 46.4947 54.8222 46.9461C54.5468 47.3975 54.1833 47.7571 53.7319 48.0249C53.2882 48.2927 52.8024 48.4266 52.2745 48.4266Z" fill="white"/>
    <defs>
        <filter id="filter0_d_3307_1173" x="96.4954" y="74.6457" width="124.285" height="142.211" filterUnits="userSpaceOnUse" color-interpolation-filters="sRGB">
            <feFlood flood-opacity="0" result="BackgroundImageFix"/>
            <feColorMatrix in="SourceAlpha" type="matrix" values="0 0 0 0 0 0 0 0 0 0 0 0 0 0 0 0 0 0 127 0" result="hardAlpha"/>
            <feOffset dy="4.39396"/>
            <feGaussianBlur stdDeviation="10.4356"/>
            <feComposite in2="hardAlpha" operator="out"/>
            <feColorMatrix type="matrix" values="0 0 0 0 0 0 0 0 0 0 0 0 0 0 0 0 0 0 0.25 0"/>
            <feBlend mode="normal" in2="BackgroundImageFix" result="effect1_dropShadow_3307_1173"/>
            <feBlend mode="normal" in="SourceGraphic" in2="effect1_dropShadow_3307_1173" result="shape"/>
        </filter>
        <linearGradient id="paint0_linear_3307_1173" x1="170.106" y1="150" x2="170.106" y2="163" gradientUnits="userSpaceOnUse">
            <stop stop-color="#6366F1"/>
            <stop offset="1" stop-color="#9756FF"/>
        </linearGradient>
    </defs>
</svg>