<svg viewBox="0 0 230 222" fill="none" xmlns="http://www.w3.org/2000/svg">
    <rect x="38.4536" y="36" width="185.093" height="185.093" rx="12.989" fill="#DADAFF" fill-opacity="0.8"/>
    <rect x="65.2407" y="152.721" width="74.2206" height="90.3408" rx="8.06015" transform="rotate(-105 65.2407 152.721)" fill="white"/>
    <rect x="75.8159" y="130.307" width="31.4341" height="7.51335" rx="3.75667" transform="rotate(-105 75.8159 130.307)" fill="#8B5CF6"/>
    <rect x="91.3657" y="126.139" width="26.2238" height="7.51335" rx="3.75667" transform="rotate(-105 91.3657 126.139)" fill="#8B5CF6"/>
    <rect x="106.572" y="122.066" width="41.1445" height="7.51335" rx="3.75667" transform="rotate(-105 106.572 122.066)" fill="#8B5CF6"/>
    <rect x="122.124" y="117.898" width="35.1737" height="7.51335" rx="3.75667" transform="rotate(-105 122.124 117.898)" fill="#8B5CF6"/>
    <g filter="url(#filter0_d_3112_886)">
        <rect x="208.718" y="101.119" width="81.334" height="98.9993" rx="8.83265" transform="rotate(90 208.718 101.119)" fill="white"/>
        <path fill-rule="evenodd" clip-rule="evenodd" d="M187.278 131.456C188.546 130.188 188.546 128.132 187.278 126.864C186.01 125.596 183.954 125.596 182.686 126.864L163.741 145.809L154.487 136.554C153.218 135.286 151.162 135.286 149.894 136.554C149.865 136.583 149.837 136.612 149.81 136.642C149.617 136.765 149.434 136.912 149.265 137.081L129.324 157.021C128.056 158.29 128.056 160.346 129.324 161.614C130.592 162.882 132.648 162.882 133.917 161.614L152.139 143.391L161.314 152.566C162.404 153.656 164.078 153.809 165.331 153.024C165.733 152.866 166.11 152.624 166.435 152.299L187.278 131.456Z" fill="url(#paint0_linear_3112_886)"/>
    </g>
    <path d="M38 70.6542C57.0868 70.6542 72.6537 55.4829 72.6537 36.6536C72.6537 17.8243 57.0868 2.65298 38 2.65298C18.9132 2.65298 3.34634 17.8243 3.34634 36.6536C3.34634 55.4829 18.9132 70.6542 38 70.6542Z" fill="#7857FF" stroke="#F6F9FC" stroke-width="5.30732"/>
    <path d="M35.649 47.3166C33.8849 47.3166 32.3206 47.0151 30.9561 46.412C29.5991 45.8013 28.5286 44.9608 27.7445 43.8902C26.9605 42.8197 26.5609 41.5871 26.5459 40.1925H32.1774C32.2 40.6976 32.3621 41.1461 32.6636 41.5381C32.9652 41.9226 33.376 42.2242 33.8962 42.4428C34.4164 42.6614 35.0082 42.7707 35.6716 42.7707C36.335 42.7707 36.9193 42.6539 37.4244 42.4202C37.937 42.1789 38.3366 41.851 38.623 41.4364C38.9095 41.0142 39.049 40.5317 39.0415 39.9889C39.049 39.4461 38.8944 38.9636 38.5778 38.5415C38.2612 38.1193 37.8126 37.7913 37.2321 37.5576C36.6592 37.3239 35.9807 37.2071 35.1967 37.2071H32.9463V33.2266H35.1967C35.8827 33.2266 36.4858 33.1135 37.006 32.8873C37.5337 32.6612 37.9446 32.3446 38.2386 31.9375C38.5326 31.5228 38.6758 31.0479 38.6683 30.5126C38.6758 29.9924 38.5514 29.5363 38.2951 29.1443C38.0463 28.7448 37.6958 28.4357 37.2434 28.2171C36.7987 27.9984 36.2822 27.8891 35.6942 27.8891C35.076 27.8891 34.5144 27.9984 34.0093 28.2171C33.5117 28.4357 33.1159 28.7448 32.8219 29.1443C32.5279 29.5439 32.3734 30.0075 32.3583 30.5352H27.0095C27.0246 29.1556 27.4091 27.9419 28.1629 26.894C28.9168 25.8386 29.9421 25.0131 31.2388 24.4175C32.543 23.8219 34.0281 23.5241 35.6942 23.5241C37.3528 23.5241 38.8115 23.8144 40.0705 24.3949C41.3295 24.9754 42.3095 25.7669 43.0106 26.7696C43.7117 27.7647 44.0623 28.8918 44.0623 30.1508C44.0698 31.455 43.6439 32.5293 42.7845 33.3736C41.9326 34.2179 40.8357 34.7381 39.4938 34.9341V35.1151C41.288 35.3262 42.6412 35.9066 43.5534 36.8565C44.4732 37.8064 44.9293 38.9938 44.9217 40.4186C44.9217 41.7605 44.5259 42.9517 43.7344 43.992C42.9503 45.0248 41.8572 45.839 40.455 46.4346C39.0603 47.0226 37.4583 47.3166 35.649 47.3166ZM51.7915 47.3279C50.9773 47.3279 50.2799 47.0415 49.6994 46.4685C49.1265 45.8956 48.8438 45.202 48.8513 44.3878C48.8438 43.5887 49.1265 42.9064 49.6994 42.341C50.2799 41.7681 50.9773 41.4816 51.7915 41.4816C52.5604 41.4816 53.2389 41.7681 53.8269 42.341C54.4225 42.9064 54.7241 43.5887 54.7316 44.3878C54.7241 44.9306 54.5808 45.4244 54.3019 45.8692C54.0305 46.314 53.6724 46.6683 53.2276 46.9322C52.7904 47.196 52.3116 47.3279 51.7915 47.3279Z" fill="white"/>
    <defs>
        <filter id="filter0_d_3112_886" x="89.1524" y="84.8829" width="140.131" height="122.466" filterUnits="userSpaceOnUse" color-interpolation-filters="sRGB">
            <feFlood flood-opacity="0" result="BackgroundImageFix"/>
            <feColorMatrix in="SourceAlpha" type="matrix" values="0 0 0 0 0 0 0 0 0 0 0 0 0 0 0 0 0 0 127 0" result="hardAlpha"/>
            <feOffset dy="4.32966"/>
            <feGaussianBlur stdDeviation="10.2829"/>
            <feComposite in2="hardAlpha" operator="out"/>
            <feColorMatrix type="matrix" values="0 0 0 0 0 0 0 0 0 0 0 0 0 0 0 0 0 0 0.25 0"/>
            <feBlend mode="normal" in2="BackgroundImageFix" result="effect1_dropShadow_3112_886"/>
            <feBlend mode="normal" in="SourceGraphic" in2="effect1_dropShadow_3112_886" result="shape"/>
        </filter>
        <linearGradient id="paint0_linear_3112_886" x1="131.995" y1="154.351" x2="178.765" y2="137.931" gradientUnits="userSpaceOnUse">
            <stop stop-color="#5F64EF"/>
            <stop offset="1" stop-color="#7857FF"/>
        </linearGradient>
    </defs>
</svg>